<svg width="28" height="15" viewBox="0 0 28 15" fill="none" xmlns="http://www.w3.org/2000/svg">
    <path d="M12.8136 6.04931L13.6788 6.98733L18.1335 2.53266C18.7215 1.94461 18.7215 1.02617 18.1335 0.441034C17.5454 -0.147011 16.627 -0.147011 16.0418 0.441034L11.2285 5.28779C11.8222 5.35775 12.3766 5.61543 12.8134 6.04948L12.8136 6.04931Z"
          fill="#346AD8"/>
    <path d="M8.91065 9.7375C8.5354 9.30913 8.32551 8.79671 8.26104 8.27586L5.94248 10.6111L2.52915 6.90099C1.94111 6.31295 1.02267 6.31295 0.43753 6.90099C-0.114078 7.4526 -0.150515 8.33188 0.364648 8.91992L4.80568 13.7275C5.06335 14.0215 5.46646 14.1671 5.86973 14.1671H5.90617C6.30944 14.1671 6.67627 14.0215 6.93379 13.7275L9.87665 10.7847L8.91065 9.7375Z"
          fill="#346AD8"/>
    <path d="M11.9598 6.90068C11.3718 6.31264 10.4533 6.31264 9.86819 6.90068C9.31659 7.45229 9.28015 8.33156 9.79531 8.91961L14.2363 13.7272C14.494 14.0211 14.8971 14.1667 15.3004 14.1667H15.3368C15.7401 14.1667 16.1069 14.0211 16.3644 13.7272L27.559 2.53266C28.147 1.94461 28.147 1.02617 27.559 0.441034C26.971 -0.147011 26.0525 -0.147011 25.4674 0.441034L15.373 10.6081L11.9598 6.90068Z"
          fill="#346AD8"/>
</svg>
