<svg xmlns="http://www.w3.org/2000/svg" xmlns:svgjs="http://svgjs.com/svgjs" xmlns:xlink="http://www.w3.org/1999/xlink" width="288" height="288"><svg xmlns="http://www.w3.org/2000/svg" width="288" height="288" viewBox="0 0 50 50"><path fill="#3062d2" d="M8 49h41V1H8C4.141 1 1 4.14 1 8v34c0 3.86 3.141 7 7 7zM8 3h39v10H25V7H11v6H8c-2.757 0-5-2.243-5-5s2.243-5 5-5zm15 12v11.865l-5-4.167-5 4.167V9h10v6zM3 12.895c.009.01.02.018.029.027.078.079.162.151.244.226.084.078.166.158.255.231.087.072.18.138.27.206.09.068.177.138.27.202.096.066.198.123.298.184.094.057.185.118.282.171.104.057.214.106.322.158.098.047.193.099.293.141.113.048.231.087.347.129.1.036.197.078.299.11.128.04.26.069.39.102.095.024.187.053.283.073.153.032.311.051.468.073.077.011.153.027.231.035.236.024.476.037.719.037h3v16.135l7-5.833 7 5.833V15h22v32H8c-2.757 0-5-2.243-5-5V12.895z" class="color000 svgShape"/></svg></svg>