<svg xmlns="http://www.w3.org/2000/svg" xmlns:svgjs="http://svgjs.com/svgjs" xmlns:xlink="http://www.w3.org/1999/xlink" width="288" height="288"><svg xmlns="http://www.w3.org/2000/svg" width="288" height="288" viewBox="0 0 100 100"><g fill="#3062d2" class="color000 svgShape" data-name="Layer 2"><path d="M90.33,25.87H84.91V12a8.51,8.51,0,0,0-8.5-8.5H23.59a8.51,8.51,0,0,0-8.5,8.5V25.87H9.67a1.5,1.5,0,0,0-1.5,1.5v53a1.5,1.5,0,0,0,1.5,1.5H48.5V93.5H36.67a1.5,1.5,0,0,0,0,3H63.33a1.5,1.5,0,0,0,0-3H51.5V81.86H90.33a1.5,1.5,0,0,0,1.5-1.5v-53A1.5,1.5,0,0,0,90.33,25.87Zm-72.24,0V13.53H81.91V47.64a5.5,5.5,0,0,1-5.5,5.5h-34V46.06h5.25a5.33,5.33,0,0,0,5.3-5L54,38H75.17V18.93H48.24V38h2.6l-.44,1.21H46.21V33.69a5.33,5.33,0,0,0-3.09-4.82,5.2,5.2,0,0,0-2.25-.52H30.17a5.2,5.2,0,0,0-2.25.52,5.33,5.33,0,0,0-3.09,4.82v14a5.33,5.33,0,0,0,3.84,5.1v.31H23.59a5.5,5.5,0,0,1-5.5-5.5V25.87ZM35.17,6.53v4H18.3a5.51,5.51,0,0,1,5.29-4Zm3,0H76.41a5.51,5.51,0,0,1,5.29,4H38.17ZM37,53.14V52H34v1.19H31.67v-3.2h7.7v1.63h0v1.57ZM51.24,35V21.93H72.17V35H55.1l1.47-4.1-2.82-1L51.91,35ZM40.87,31.35a2.34,2.34,0,0,1,2.34,2.34v8.52h6.21a2.33,2.33,0,0,1-1.8.85H42.37V37.65a1.5,1.5,0,0,0-3,0v9.29h-7.7V37.65a1.5,1.5,0,1,0-3,0V49.51a2.32,2.32,0,0,1-.84-1.78v-14a2.34,2.34,0,0,1,2.34-2.34Zm48,47.51H11.17v-50h3.92V47.64a8.51,8.51,0,0,0,8.5,8.5h6.14a1.45,1.45,0,0,0,.89,0H76.41a8.51,8.51,0,0,0,8.5-8.5V28.87h3.92Z" class="color000 svgShape"/><rect width="3" height="6.76" x="20.09" y="64.12" class="color000 svgShape"/><rect width="3" height="6.76" x="15.09" y="64.12" class="color000 svgShape"/><path d="M47.25 61.53A6 6 0 0041.48 66h-15v3h15A6 6 0 0053 69h30.4V66H53A6 6 0 0047.25 61.53zm0 8.93A3 3 0 1149.79 69 3 3 0 0147.25 70.46zM35.79 27.6A5.57 5.57 0 1030.22 22a5.6 5.6 0 005.57 5.57zm0-8.14A2.57 2.57 0 1133.22 22 2.57 2.57 0 0135.79 19.46zM56.44 29.53a1.54 1.54 0 001.07.44 1.52 1.52 0 001.06-.44 1.57 1.57 0 00.38-.66 1.84 1.84 0 00.06-.4 1.52 1.52 0 00-.44-1.07 1.58 1.58 0 00-2.13 0A1.56 1.56 0 0056 28.47a1.39 1.39 0 00.06.4A1.55 1.55 0 0056.44 29.53zM64.84 29.53a1.65 1.65 0 00.77.41l.29 0A1.5 1.5 0 0067 29.53a1.57 1.57 0 00.38-.66 1.84 1.84 0 00.06-.4c0-.1 0-.2 0-.3a1.52 1.52 0 00-.09-.28 2.15 2.15 0 00-.14-.26A1.37 1.37 0 0067 27.4a1.92 1.92 0 00-.22-.18 1.65 1.65 0 00-.26-.14A1 1 0 0066.2 27a1.53 1.53 0 00-1.36.4 1.73 1.73 0 00-.32.49 1.41 1.41 0 00-.12.58 1.84 1.84 0 00.06.4A1.57 1.57 0 0064.84 29.53zM60.26 28.87l.06.17a1.73 1.73 0 00.32.49 1.52 1.52 0 001.07.44l.29 0a1.52 1.52 0 00.28-.09 1.73 1.73 0 00.49-.32A2 2 0 0063 29.3a1.3 1.3 0 00.14-.26l.06-.17 0-.11a1.5 1.5 0 000-.29 1.59 1.59 0 00-.44-1.07 2 2 0 00-.23-.18 1.3 1.3 0 00-.26-.14A1 1 0 0062 27a1.54 1.54 0 00-1.36.4 1.51 1.51 0 00-.43 1.07 1.46 1.46 0 000 .29z" class="color000 svgShape"/></g></svg></svg>