<svg width="28" height="19" viewBox="0 0 28 19" fill="none" xmlns="http://www.w3.org/2000/svg">
    <path d="M9.22061 14.2674C9.63397 14.1855 9.9826 13.8953 10.1519 13.4915L13.6604 5.12948L17.593 18.0702C17.6702 18.325 17.8181 18.5499 18.0183 18.7156C18.2183 18.8815 18.4613 18.9804 18.7156 19H18.8081C19.0471 18.9995 19.2811 18.9288 19.4833 18.7958C19.6858 18.6629 19.8486 18.4727 19.9532 18.2476L23.5349 10.5545H26.7243C27.1802 10.5545 27.6013 10.2995 27.8291 9.88565C28.057 9.47151 28.057 8.96147 27.8291 8.54761C27.6013 8.13371 27.1801 7.87872 26.7243 7.87872H22.7407C22.5013 7.87848 22.2666 7.94894 22.0636 8.08216C21.8605 8.21515 21.6972 8.40554 21.5924 8.63138L19.0568 14.0834L15.0765 0.931261C14.9708 0.584323 14.735 0.297364 14.4232 0.136814C14.1113 -0.0237061 13.7507 -0.0437689 13.4243 0.0808185C13.0979 0.205406 12.8341 0.464389 12.6939 0.797559L8.56361 10.6312L5.51455 7.45375V7.45351C5.27517 7.2048 4.95191 7.06528 4.61507 7.06551H1.27566C0.819807 7.06551 0.398681 7.32052 0.170863 7.73465C-0.0569544 8.14855 -0.0569544 8.65859 0.170863 9.07245C0.398681 9.48635 0.819859 9.74134 1.27566 9.74134H4.0887L8.08508 13.9023C8.38342 14.2123 8.80788 14.3488 9.22063 14.2669L9.22061 14.2674Z"
          fill="#346AD8"/>
</svg>
