<svg width="15" height="21" viewBox="0 0 15 21" fill="none" xmlns="http://www.w3.org/2000/svg">
    <path d="M7.58288 6.08967C9.26328 6.08967 10.6268 4.72631 10.6268 3.04391C10.6268 1.36293 9.26328 0 7.58288 0C5.90037 0 4.5376 1.36293 4.5376 3.04391C4.5376 4.72631 5.90037 6.08967 7.58288 6.08967Z"
          fill="#346AD8"/>
    <path d="M13.4599 17.6607C13.6344 17.7991 13.8428 17.8664 14.0499 17.8664C14.3294 17.8664 14.6065 17.7436 14.7941 17.5074C15.1201 17.097 15.0516 16.4993 14.6412 16.1734C12.6136 14.5635 10.49 9.71405 9.8423 7.9813C9.79195 7.84667 9.71242 7.73215 9.61602 7.63804C9.5474 7.48422 9.43671 7.36202 9.30238 7.27912C8.83538 6.76547 8.15517 6.45138 7.41276 6.4776C6.28594 6.51505 5.36837 7.31304 5.12416 8.36125C4.44702 9.84561 2.56352 13.6817 0.350768 15.6601C-0.0399298 16.0098 -0.0737121 16.6099 0.276008 17.001C0.463449 17.211 0.723517 17.3176 0.984195 17.3176C1.20956 17.3176 1.43552 17.2379 1.61669 17.0761C2.97455 15.8616 4.18916 14.0977 5.13251 12.4823C5.1408 13.1504 5.14664 13.8721 5.14664 14.6196C5.14664 14.8521 5.18149 15.0764 5.24243 15.2895C0.393982 17.7557 -0.332677 18.6669 0.111021 19.8373C0.371997 20.5281 0.990989 20.8089 2.04242 20.8085C2.90919 20.8085 4.07082 20.6183 5.57039 20.3082C6.18721 20.1809 6.7962 20.0434 7.34471 19.9144C9.74249 20.5326 11.2693 20.8031 12.2588 20.8031C13.4002 20.8031 13.8303 20.4446 14.0712 19.8477C14.3245 19.2228 14.7401 18.1905 9.87552 15.465C9.97208 15.2005 10.0287 14.9172 10.0287 14.6194C10.0287 14.0483 10.0252 13.4943 10.0204 12.9664C10.9633 14.7498 12.1684 16.6351 13.4598 17.6608L13.4599 17.6607ZM7.54445 18.0242C7.29575 17.9586 7.03233 17.8865 6.752 17.8083C6.9026 17.7305 7.05949 17.6508 7.22498 17.5698C7.38018 17.6089 7.54122 17.6341 7.70809 17.6341C7.82231 17.6341 7.9333 17.6224 8.04061 17.6028C8.08697 17.6407 8.13655 17.674 8.19044 17.7033C8.25507 17.7393 8.31847 17.7758 8.38279 17.8105C8.10677 17.884 7.82477 17.9546 7.54444 18.0242H7.54445Z"
          fill="#346AD8"/>
</svg>
