<svg xmlns="http://www.w3.org/2000/svg" xmlns:svgjs="http://svgjs.com/svgjs" xmlns:xlink="http://www.w3.org/1999/xlink" width="288" height="288"><svg xmlns="http://www.w3.org/2000/svg" width="288" height="288" enable-background="new 0 0 50 50" viewBox="0 0 50 50"><path fill="#3062d2" d="M32.8,2.6H10.9c-1.5,0-2.8,1.3-2.8,2.8v39.3c0,1.5,1.3,2.8,2.8,2.8h30c0.6,0,1-0.5,1-1V12.8h-7.9c-0.3,0-0.5-0.1-0.7-0.3
		c-0.2-0.2-0.3-0.5-0.3-0.7l0-9.3C33,2.6,32.9,2.6,32.8,2.6z M25.1,33.3h-9.9c-0.5,0-1-0.5-1-1s0.5-1,1-1h9.9c0.5,0,1,0.5,1,1
		S25.7,33.3,25.1,33.3z M27.2,28.4h-12c-0.5,0-1-0.5-1-1s0.5-1,1-1h12c0.6,0,1,0.5,1,1S27.8,28.4,27.2,28.4z M31.6,23.6H15.2
		c-0.5,0-1-0.5-1-1s0.5-1,1-1h16.4c0.5,0,1,0.5,1,1S32.1,23.6,31.6,23.6z M34.8,16.7c0.6,0,1,0.5,1,1c0,0.6-0.4,1-1,1H15.2
		c-0.5,0-1-0.4-1-1c0-0.5,0.5-1,1-1H34.8z" class="color000 svgShape"/><path fill="#3062d2" d="M35.1,3.7l0,7.2h6.7c-0.1-0.4-0.4-0.8-0.7-1.1L35.1,3.7z" class="color000 svgShape"/></svg></svg>