<svg width="20" height="20" viewBox="0 0 20 20" fill="none" xmlns="http://www.w3.org/2000/svg">
    <path d="M17.1063 15.0104C16.7795 15.0125 16.4576 15.0903 16.1661 15.2378L16.1846 15.2193L13.4603 12.4949H13.4605C13.9736 11.7786 14.2514 10.9206 14.2555 10.0394C14.2595 9.15829 13.9897 8.29768 13.4833 7.57661L16.4377 4.80448C17.177 5.14258 18.0341 5.10249 18.7388 4.69709C19.4434 4.29152 19.9088 3.57062 19.988 2.76141C20.0672 1.95237 19.7506 1.15477 19.1381 0.620333C18.5254 0.0857347 17.6924 -0.119836 16.9015 0.0683833C16.1106 0.256607 15.4595 0.815232 15.1532 1.56843C14.8469 2.32147 14.9234 3.17622 15.3586 3.86291L12.4833 6.56087C11.7615 6.0336 10.8916 5.74734 9.99775 5.74339C9.10379 5.73925 8.23129 6.01737 7.50468 6.53814L4.78043 3.81456L4.76197 3.83302C4.90946 3.54154 4.98725 3.21964 4.98932 2.89286C4.98932 2.32563 4.76404 1.78183 4.36311 1.38071C3.96202 0.979758 3.41824 0.754466 2.85104 0.754466C2.28385 0.754466 1.74007 0.979758 1.33897 1.38071C0.938043 1.78182 0.712762 2.32563 0.712762 2.89286C0.712762 3.46008 0.938043 4.00388 1.33897 4.40501C1.74006 4.80596 2.28385 5.03125 2.85104 5.03125C3.17783 5.02918 3.4997 4.95138 3.79115 4.80389L3.7727 4.82234L6.49695 7.54674H6.49679C5.98002 8.26813 5.70208 9.13334 5.70208 10.0208C5.70208 10.9083 5.98003 11.7735 6.49679 12.4949L4.90803 14.0838C4.40001 13.7595 3.81009 13.5866 3.20742 13.5848C2.35671 13.5848 1.54087 13.9228 0.939459 14.5243C0.337889 15.1258 0 15.9417 0 16.7924C0 17.6432 0.337926 18.4591 0.939459 19.0605C1.54087 19.6621 2.35671 20 3.20742 20C4.05813 20 4.87398 19.6621 5.47538 19.0605C6.07695 18.4591 6.41484 17.6432 6.41484 16.7924C6.41325 16.1897 6.24015 15.5998 5.91591 15.0917L7.50467 13.5029C8.22603 14.0197 9.0912 14.2976 9.97864 14.2976C10.8661 14.2976 11.7313 14.0197 12.4526 13.5029L15.1769 16.2273L15.1953 16.2088V16.2086C15.0478 16.5001 14.97 16.822 14.968 17.1488C14.968 17.716 15.1933 18.2598 15.5942 18.661C15.9953 19.0619 16.5391 19.2872 17.1063 19.2872C17.6734 19.2872 18.2172 19.0619 18.6183 18.661C19.0193 18.2598 19.2445 17.716 19.2445 17.1488C19.2445 16.5816 19.0193 16.0378 18.6183 15.6367C18.2172 15.2357 17.6734 15.0104 17.1063 15.0104V15.0104Z"
          fill="#346AD8"/>
</svg>
