<svg width="12" height="13" viewBox="0 0 12 13" fill="none" xmlns="http://www.w3.org/2000/svg">
    <path d="M3.48311 9.58645V9.43645H3.33311H0.666822C0.502152 9.43645 0.375956 9.38086 0.290896 9.29354C0.205497 9.20586 0.15 9.07423 0.15 8.90152V0.684924C0.15 0.512414 0.205405 0.380766 0.290774 0.293035C0.375782 0.205677 0.501958 0.15 0.666822 0.15H11.3332C11.4978 0.15 11.624 0.205584 11.7091 0.29291C11.7945 0.380584 11.85 0.512212 11.85 0.684924V8.90152C11.85 9.07403 11.7946 9.20568 11.7092 9.29341C11.6242 9.38077 11.498 9.43645 11.3332 9.43645H7.60016H7.53684L7.49268 9.48181L4.35957 12.7C4.05207 13.0154 3.4833 12.8057 3.4833 12.3251V12.1832L3.48311 12.1832V9.58645ZM1.1831 8.21699L1.1831 8.36699H1.3331H3.99939C4.16406 8.36699 4.29025 8.42258 4.37532 8.5099C4.46072 8.59758 4.51621 8.7292 4.51621 8.90191V10.6821V11.0512L4.77369 10.7867L6.97357 8.52712C7.03166 8.46746 7.08346 8.42914 7.13668 8.40485C7.18914 8.38092 7.2507 8.3671 7.33297 8.3671H10.6661H10.8161L10.8161 8.21709L10.8157 1.36982L10.8157 1.21983H10.6657H1.33305H1.18305L1.18305 1.36984L1.1831 8.21699ZM9.18256 6.69766H2.81624V5.62833H9.18256V6.69766ZM9.18256 3.95851H2.81624V2.88918H9.18256V3.95851Z"
          fill="#346AD8" stroke="#346AD8" stroke-width="0.3"/>
</svg>
